<svg width="512" height="512" viewBox="0 0 512 512" fill="none" xmlns="http://www.w3.org/2000/svg">
<g clip-path="url(#clip0)">
<rect y="1" width="512" height="512" fill="url(#paint0_linear)"/>
<rect y="1" width="512" height="512" fill="url(#paint1_linear)"/>
<path d="M339.278 191.443C349.617 191.443 357.998 183.061 357.998 172.723C357.998 162.384 349.617 154.003 339.278 154.003C328.939 154.003 320.558 162.384 320.558 172.723C320.558 183.061 328.939 191.443 339.278 191.443Z" fill="white"/>
<path d="M256 128.106C297.652 128.106 302.592 128.262 319.037 129.016C328.928 129.133 338.725 130.95 348.001 134.385C354.731 136.981 360.842 140.957 365.943 146.057C371.043 151.158 375.019 157.269 377.615 163.999C381.05 173.275 382.867 183.072 382.984 192.963C383.738 209.408 383.894 214.348 383.894 256.013C383.894 297.678 383.738 302.592 382.984 319.037C382.867 328.928 381.05 338.725 377.615 348.001C375.019 354.731 371.043 360.842 365.943 365.943C360.842 371.043 354.731 375.019 348.001 377.615C338.725 381.05 328.928 382.867 319.037 382.984C302.592 383.738 297.652 383.894 256 383.894C214.348 383.894 209.408 383.738 192.963 382.984C183.072 382.867 173.275 381.05 163.999 377.615C157.269 375.019 151.158 371.043 146.057 365.943C140.957 360.842 136.981 354.731 134.385 348.001C130.95 338.725 129.133 328.928 129.016 319.037C128.262 302.592 128.106 297.652 128.106 256C128.106 214.348 128.262 209.408 129.016 192.963C129.133 183.072 130.95 173.275 134.385 163.999C136.981 157.269 140.957 151.158 146.057 146.057C151.158 140.957 157.269 136.981 163.999 134.385C173.275 130.95 183.072 129.133 192.963 129.016C209.408 128.262 214.348 128.106 256 128.106V128.106ZM256 100C213.633 100 208.316 100.182 191.676 100.936C178.738 101.197 165.938 103.65 153.82 108.19C143.455 112.198 134.043 118.327 126.185 126.185C118.327 134.043 112.198 143.455 108.19 153.82C103.649 165.942 101.196 178.747 100.936 191.689C100.182 208.329 100 213.62 100 256C100 298.38 100.182 303.684 100.936 320.324C101.197 333.262 103.65 346.062 108.19 358.18C112.198 368.545 118.327 377.957 126.185 385.815C134.043 393.673 143.455 399.802 153.82 403.81C165.942 408.351 178.747 410.804 191.689 411.064C208.329 411.818 213.633 412 256 412C298.367 412 303.684 411.818 320.324 411.064C333.266 410.804 346.071 408.351 358.193 403.81C368.558 399.802 377.97 393.673 385.828 385.815C393.686 377.957 399.815 368.545 403.823 358.18C408.36 346.057 410.808 333.253 411.064 320.311C411.818 303.671 412 298.38 412 256C412 213.62 411.818 208.316 411.064 191.676C410.803 178.738 408.35 165.938 403.81 153.82C399.802 143.455 393.673 134.043 385.815 126.185C377.957 118.327 368.545 112.198 358.18 108.19C346.057 103.653 333.253 101.205 320.311 100.949C303.671 100.169 298.38 100 256 100Z" fill="white"/>
<g clip-path="url(#clip1)">
<path d="M258.509 257.184L301.898 300.114C312.882 288.501 319 273.144 319 257.184C319 241.225 312.882 225.868 301.898 214.255L258.509 257.184Z" fill="white"/>
<path d="M255.342 260.026L212.586 302.324L255.342 320L298.097 302.324L255.342 260.026Z" fill="white"/>
<path d="M253.758 255.606L298.097 211.73L257.242 195L216.703 292.538L253.758 255.606Z" fill="white"/>
<path d="M192 257.185C191.969 273.15 198.092 288.518 209.102 300.114L251.541 198.157L192 257.185Z" fill="white"/>
</g>
</g>
<defs>
<linearGradient id="paint0_linear" x1="413" y1="81.5" x2="-12" y2="521" gradientUnits="userSpaceOnUse">
<stop stop-color="#9E4C42"/>
<stop offset="1" stop-color="#3291DC"/>
</linearGradient>
<linearGradient id="paint1_linear" x1="-82.5" y1="-91" x2="114.5" y2="193" gradientUnits="userSpaceOnUse">
<stop stop-color="#FF0000"/>
<stop offset="1" stop-color="white" stop-opacity="0"/>
</linearGradient>
<clipPath id="clip0">
<rect width="512" height="512" rx="125" fill="white"/>
</clipPath>
<clipPath id="clip1">
<rect width="127" height="125" fill="white" transform="translate(192 195)"/>
</clipPath>
</defs>
</svg>
